<?xml version="1.0" standalone="no"?>
<!DOCTYPE svg PUBLIC "-//W3C//DTD SVG 20010904//EN"
 "http://www.w3.org/TR/2001/REC-SVG-20010904/DTD/svg10.dtd">
<svg version="1.0" xmlns="http://www.w3.org/2000/svg"
 width="258.000000pt" height="320.000000pt" viewBox="0 0 258.000000 320.000000"
 preserveAspectRatio="xMidYMid meet">
<metadata>
Created by potrace 1.16, written by Peter Selinger 2001-2019
</metadata>
<g transform="translate(0.000000,320.000000) scale(0.100000,-0.100000)"
fill="#000000" stroke="none">
<path d="M855 3120 c-3 -5 -75 -10 -163 -10 -86 -1 -246 -3 -354 -3 -124 -1
-198 -6 -198 -12 0 -5 -4 -4 -8 2 -6 9 -17 10 -39 4 -17 -5 -33 -8 -35 -8 -2
1 0 -2 4 -8 5 -5 8 -17 8 -27 0 -10 6 -18 13 -19 6 -1 30 -3 52 -6 69 -7 240
-3 276 7 18 6 57 10 85 10 28 0 64 4 80 10 30 10 261 30 374 32 l65 1 -67 10
c-38 6 -68 14 -68 19 0 11 -17 10 -25 -2z"/>
<path d="M48 2867 c3 -40 0 -57 -12 -69 -13 -14 -13 -18 -1 -28 8 -6 21 -13
28 -14 8 -1 23 -8 33 -16 12 -11 18 -12 21 -4 3 8 14 9 36 3 18 -4 53 -11 80
-14 30 -4 45 -10 41 -17 -5 -7 -2 -8 6 -3 22 14 90 24 83 12 -4 -6 0 -8 9 -4
9 3 19 3 23 -1 4 -4 19 -8 33 -9 59 -3 241 -23 270 -29 15 -3 21 -1 17 6 -8
12 1 13 42 1 32 -9 56 2 31 13 -9 4 -8 5 2 4 13 -2 143 13 163 18 4 1 22 3 40
4 l32 2 -30 8 c-20 4 -5 6 42 5 40 -1 72 1 71 4 -2 22 5 31 27 31 14 0 33 4
43 9 32 18 112 38 112 29 0 -5 7 -5 18 1 9 5 33 11 52 15 67 11 133 26 139 32
7 7 -168 -2 -220 -11 -33 -6 -37 -5 -43 20 -5 19 -11 25 -24 21 -9 -3 -45 -6
-80 -7 -34 -1 -65 -6 -68 -10 -3 -5 0 -9 6 -9 6 0 8 -4 5 -10 -4 -6 11 -10 37
-10 59 0 81 -15 37 -25 -19 -5 -28 -10 -21 -12 50 -18 -79 -46 -223 -49 -49
-1 -161 -5 -248 -9 -143 -6 -164 -5 -215 13 -62 21 -162 42 -205 42 -35 0 -35
-18 1 -22 15 -2 26 -8 25 -15 -2 -7 2 -13 9 -13 6 0 9 -2 6 -5 -7 -8 -39 6
-34 14 2 3 -13 5 -35 3 -37 -4 -39 -2 -45 27 -5 25 -13 33 -36 38 -16 3 -33
14 -39 25 -16 30 -2 34 25 7 21 -21 34 -25 103 -26 65 -1 70 0 33 6 -55 9
-100 27 -100 40 0 8 -19 14 -75 23 -11 2 -23 7 -26 11 -3 4 -4 -16 -1 -46z"/>
<path d="M2430 2538 c-1 -40 -3 -100 -3 -133 0 -33 -2 -52 -4 -42 -5 21 -43
23 -43 2 0 -8 -5 -15 -12 -15 -6 0 -8 3 -5 7 4 3 -1 12 -11 19 -16 12 -15 13
6 14 31 0 28 17 -5 24 -35 8 -194 5 -189 -3 2 -3 -19 -6 -47 -7 -65 -1 -238
-20 -294 -32 -24 -5 -43 -6 -43 -2 0 9 3 10 -195 -43 -82 -22 -165 -42 -182
-44 -22 -4 -33 -11 -33 -22 0 -13 -2 -13 -9 -2 -5 8 -16 11 -29 7 -45 -15 -73
-17 -231 -21 -98 -3 -171 0 -182 6 -12 6 -19 6 -19 0 0 -6 -16 -7 -37 -4 -56
7 -104 23 -98 32 2 5 -19 6 -48 4 -62 -5 -101 3 -91 19 4 6 3 8 -3 5 -6 -4
-72 -2 -148 3 -200 15 -365 -9 -365 -52 0 -13 10 -20 31 -25 19 -4 26 -9 19
-13 -26 -16 3 -30 63 -31 l62 -2 -60 -7 c-33 -3 -70 -3 -83 2 -39 14 -92 10
-92 -7 0 -8 5 -15 10 -15 6 0 10 -5 10 -11 0 -5 -4 -8 -9 -5 -4 3 -17 -1 -27
-9 -18 -14 -18 -14 7 -15 17 0 29 -8 36 -22 9 -20 6 -27 -20 -50 -17 -16 -36
-28 -43 -28 -9 0 -9 -8 3 -31 10 -20 14 -47 11 -80 -3 -27 -2 -52 2 -54 4 -3
7 -34 5 -70 -1 -36 2 -65 6 -65 5 0 9 10 9 22 0 12 3 18 7 15 3 -4 5 -36 4
-73 -1 -36 3 -71 9 -79 12 -15 -7 -68 -21 -59 -5 3 -9 0 -9 -5 0 -6 5 -11 10
-11 6 0 10 -10 10 -22 0 -13 5 -30 10 -38 9 -14 11 -11 10 15 0 3 5 11 12 19
10 11 17 1 35 -53 12 -36 23 -68 23 -71 0 -3 4 1 9 8 7 11 -34 161 -58 212
-11 25 -6 133 8 138 6 2 25 -11 42 -30 26 -29 29 -39 25 -75 -3 -23 -1 -45 4
-48 6 -3 10 -18 10 -33 0 -41 10 -70 27 -76 24 -9 33 3 23 29 -8 20 -5 28 17
45 l27 21 8 -21 c4 -12 5 -27 1 -33 -3 -7 3 -4 15 6 20 18 20 18 15 -1 -3 -13
6 -37 26 -66 17 -24 31 -56 31 -70 0 -29 17 -73 39 -99 19 -22 7 -34 -14 -13
-24 23 -24 20 -5 -22 10 -20 25 -53 33 -72 9 -19 17 -31 17 -26 0 12 60 -64
60 -76 0 -5 4 -7 9 -4 5 3 25 -5 45 -19 20 -13 36 -20 36 -15 0 5 -4 12 -10
15 -5 3 -10 13 -10 22 0 20 34 -22 44 -54 4 -13 11 -23 15 -23 9 0 25 -75 22
-97 -1 -6 7 -14 18 -18 13 -4 18 -11 14 -22 -4 -11 -2 -14 5 -9 7 4 27 -16 52
-56 22 -35 49 -74 60 -86 11 -13 20 -34 20 -45 0 -31 68 -129 83 -121 7 4 9 4
5 0 -4 -5 13 -37 38 -73 52 -77 57 -111 15 -125 -11 -3 -9 -9 9 -26 13 -12 21
-22 17 -22 -4 0 -2 -10 4 -22 6 -12 13 -49 15 -82 2 -34 8 -70 13 -81 16 -38
33 -90 34 -102 0 -7 12 -13 26 -13 19 0 30 8 39 30 8 16 11 34 7 39 -5 10 26
33 42 30 4 -1 11 0 16 1 19 6 33 5 39 -5 5 -6 8 -3 8 8 0 23 19 22 41 -5 17
-19 19 -19 19 -3 0 15 2 15 16 4 10 -8 13 -21 9 -36 -3 -13 -1 -23 5 -23 5 0
9 -5 8 -12 -2 -8 9 -12 30 -12 17 0 32 -5 32 -11 0 -5 4 -4 9 4 8 12 12 12 25
2 19 -16 66 -10 79 10 6 9 7 25 2 35 -4 11 -9 30 -11 44 -2 14 -4 31 -5 38 -1
6 -16 27 -32 45 -43 47 -60 75 -52 87 3 5 1 10 -4 10 -6 0 -11 9 -11 20 0 11
4 20 8 20 15 0 35 -47 27 -62 -5 -7 -5 -10 0 -6 4 4 18 -6 32 -22 13 -16 33
-32 45 -36 11 -3 32 -18 45 -33 14 -14 3 6 -23 44 -26 39 -60 84 -76 100 -15
17 -28 40 -27 50 0 20 0 20 12 1 7 -10 20 -26 30 -35 9 -8 17 -20 17 -26 0 -5
25 -37 56 -70 30 -33 67 -76 82 -95 33 -43 60 -64 89 -68 32 -4 36 12 8 42
-77 83 -97 134 -49 122 45 -12 76 -37 63 -52 -14 -17 -2 -39 15 -25 8 7 12 3
14 -17 1 -15 7 -29 13 -31 20 -6 59 -53 53 -63 -4 -5 5 -2 20 7 25 16 28 16
45 1 9 -9 22 -16 28 -16 6 0 14 -7 17 -16 5 -13 9 -14 20 -5 11 9 19 9 35 -1
16 -10 23 -10 33 0 9 9 9 12 0 12 -6 0 -9 7 -6 15 4 10 13 13 25 10 22 -7 43
27 36 57 -5 19 -4 19 18 -2 14 -13 23 -26 21 -29 -2 -3 2 -11 9 -18 10 -10 16
-9 27 4 11 14 11 16 -1 9 -18 -12 -31 11 -31 57 0 39 18 51 27 17 3 -11 12
-20 19 -20 8 0 14 -7 14 -15 0 -8 5 -15 10 -15 6 0 10 5 10 11 0 5 4 8 10 4 5
-3 5 7 -1 25 -7 19 -18 30 -29 30 -28 0 -62 49 -59 85 4 44 9 49 33 27 11 -11
37 -27 56 -36 19 -9 46 -25 60 -36 20 -16 22 -22 11 -29 -12 -8 -11 -13 5 -33
10 -13 23 -25 29 -25 5 -1 11 -6 13 -12 3 -8 -4 -8 -22 -1 -30 11 -33 4 -9
-22 16 -18 16 -19 -17 -13 -18 3 -38 8 -43 12 -5 3 -4 -4 2 -15 6 -12 28 -26
49 -32 47 -13 132 -13 133 0 1 6 3 15 4 20 1 6 3 33 4 62 1 63 12 57 17 -9 2
-26 4 -49 5 -50 1 -2 2 -9 3 -15 0 -8 19 -14 46 -16 36 -3 43 -1 33 9 -16 16
-17 49 -1 49 6 0 8 3 5 6 -3 4 -2 15 4 25 16 31 3 21 -19 -13 l-20 -32 -7 35
c-3 19 -4 78 -1 131 3 54 1 98 -3 98 -5 0 -9 12 -9 28 -1 15 -3 72 -6 127 -3
55 -8 160 -11 234 -3 89 -9 137 -17 142 -9 6 -9 14 2 34 13 24 13 28 -1 39
-14 10 -16 34 -12 176 4 143 7 609 6 1005 0 114 2 241 6 258 0 5 6 5 13 1 8
-5 9 -2 4 12 -7 16 -13 84 -19 197 -1 15 -7 27 -13 27 -6 0 -12 -30 -14 -72z
m-2046 -374 c13 -5 14 -9 5 -20 -9 -11 -7 -14 12 -15 13 0 33 -3 44 -5 11 -3
46 -6 77 -7 32 0 52 -5 45 -9 -7 -5 -2 -8 15 -8 15 0 30 4 33 10 3 5 29 8 56
6 71 -5 48 11 -31 22 l-65 10 83 1 c49 1 82 -3 82 -9 0 -5 9 -10 21 -10 11 0
18 4 15 9 -7 11 60 18 164 16 47 -1 118 -3 159 -4 88 -1 91 -8 4 -13 -34 -1
-59 -6 -56 -11 3 -4 77 -6 164 -3 135 5 161 3 166 -9 3 -8 9 -15 14 -15 4 0 6
6 3 14 -7 18 45 26 174 26 80 0 101 -3 96 -12 -5 -9 -2 -8 10 1 13 11 14 16 4
23 -8 5 -4 7 12 4 14 -3 33 -5 43 -5 40 -2 7 -47 -45 -62 -18 -5 -96 -11 -173
-13 -101 -3 -148 -9 -170 -20 -16 -9 -35 -16 -42 -16 -7 0 -17 -9 -22 -19 -19
-34 8 -42 148 -42 99 -1 133 -4 142 -15 18 -22 3 -42 -43 -54 -39 -11 -76 -27
-133 -57 -34 -19 -128 -37 -185 -36 -47 1 -50 0 -20 -6 32 -7 30 -8 -25 -12
-69 -6 -106 2 -60 12 26 6 24 7 -15 8 -43 1 -95 -17 -60 -20 30 -3 -96 -17
-163 -18 -43 -1 -66 3 -62 9 4 6 -9 10 -32 11 -21 0 -125 2 -232 3 -146 3
-191 1 -180 -8 8 -6 36 -28 61 -48 49 -41 64 -47 54 -22 -5 14 -4 15 9 4 8 -7
12 -16 9 -21 -3 -5 3 -12 12 -16 19 -7 44 -25 76 -55 10 -10 21 -18 26 -18 4
0 23 -15 42 -33 19 -18 49 -42 65 -53 17 -10 49 -32 71 -49 53 -38 107 -69
117 -67 12 3 53 -27 48 -36 -4 -7 31 -34 139 -109 92 -64 93 -66 70 -91 -12
-12 -27 -22 -35 -22 -8 0 -19 -9 -25 -21 -7 -11 -14 -18 -17 -15 -3 3 2 17 11
30 20 32 15 44 -37 83 -23 17 -67 50 -97 73 -30 23 -62 49 -70 58 -8 10 -42
37 -75 62 -33 25 -91 70 -130 101 -38 30 -95 69 -125 87 -31 17 -86 60 -124
96 -38 37 -72 66 -76 66 -4 0 -15 9 -24 19 -13 15 -14 20 -4 25 7 3 4 4 -7 1
-11 -2 -27 0 -35 5 -13 8 -13 10 1 10 19 0 24 50 5 50 -7 0 -7 3 1 8 11 7 12
32 4 99 0 7 -14 26 -30 42 -23 24 -30 27 -35 15 -3 -8 -10 -13 -14 -10 -20 12
-44 -21 -48 -65 -4 -60 -6 -70 -13 -64 -3 3 -4 26 -2 50 3 61 -5 83 -40 100
-16 9 -29 21 -29 27 0 6 3 8 7 5 3 -4 11 0 17 8 6 7 33 16 59 18 27 2 52 9 56
16 6 9 10 8 16 -6 7 -17 8 -17 15 3 6 16 15 20 32 17 13 -2 34 0 48 6 14 5 26
10 27 10 1 1 9 -2 17 -5z m1702 -74 l24 0 -20 -20 c-20 -20 -28 -21 -178 -14
-86 3 -159 8 -162 11 -9 9 18 38 40 41 14 2 20 0 16 -7 -5 -7 11 -11 48 -11
32 0 56 -4 56 -10 0 -7 8 -6 23 1 l22 12 -30 13 c-16 7 -23 13 -15 13 8 1 22
-3 30 -9 8 -5 19 -5 25 0 21 17 70 16 84 -2 7 -10 24 -18 37 -18z m270 -165
c-12 -19 -13 -25 -4 -26 10 0 10 -2 1 -6 -10 -3 -9 -12 3 -35 17 -32 12 -91
-10 -138 -7 -14 -11 -33 -8 -44 3 -13 0 -16 -9 -11 -9 6 -11 -2 -5 -33 5 -33
1 -55 -19 -102 -26 -62 -30 -80 -17 -80 4 0 17 24 30 52 12 28 24 49 26 47 2
-2 7 -40 11 -84 8 -96 14 -127 25 -120 11 7 23 -32 14 -46 -3 -6 0 -15 7 -20
16 -10 23 -232 8 -261 -5 -9 -5 -19 0 -22 4 -3 8 -110 8 -238 0 -128 3 -244 8
-258 8 -25 8 -25 -14 -6 -27 24 -36 17 -15 -12 15 -22 44 -30 44 -12 0 6 5 10
10 10 6 0 10 -26 10 -57 0 -52 -1 -55 -15 -37 -14 18 -14 18 -16 -11 -1 -16
-2 -35 -2 -41 1 -19 -36 -3 -43 18 -3 11 -12 17 -20 14 -8 -3 -29 7 -47 22
-17 15 -58 44 -89 65 -32 20 -58 42 -58 47 0 6 -6 10 -14 10 -8 0 -16 4 -18 8
-1 5 -23 22 -48 39 -25 17 -67 49 -95 72 -27 22 -53 41 -57 41 -3 0 -28 21
-54 47 -26 27 -53 47 -59 45 -7 -1 -19 5 -26 15 -9 11 -10 14 -1 9 6 -4 12 -5
12 -3 0 3 -36 29 -80 58 -44 29 -80 56 -80 61 0 4 -6 8 -14 8 -8 0 -18 14 -22
32 -3 18 -13 42 -20 54 -22 33 -5 35 29 4 53 -47 136 -100 129 -81 -3 9 17 -6
45 -34 55 -55 74 -70 182 -139 59 -38 71 -43 59 -24 -24 36 -87 96 -108 103
-11 3 -19 10 -17 14 3 11 -58 61 -76 61 -8 0 -23 12 -33 27 -9 15 -26 36 -36
47 -10 11 -18 28 -18 38 0 12 -4 16 -12 12 -7 -4 -8 -3 -4 4 4 6 0 32 -9 57
-19 57 -19 80 1 40 8 -16 12 -22 10 -13 -5 16 19 88 28 88 3 0 3 -20 1 -45 -3
-31 -1 -45 8 -45 9 0 9 -2 0 -8 -26 -17 4 -62 33 -49 3 1 12 -9 19 -23 19 -34
19 -7 0 30 -8 15 -16 42 -17 59 -1 17 -8 33 -15 35 -7 3 -13 14 -13 25 0 11
-5 23 -11 27 -8 4 -8 9 0 17 6 6 11 35 11 63 0 29 5 56 10 59 6 4 8 15 5 26
-4 11 -3 19 2 18 20 -3 29 2 30 21 2 18 30 64 65 103 21 24 13 51 -10 38 -41
-23 -62 -51 -53 -74 6 -16 3 -31 -11 -52 l-20 -30 6 42 c5 35 4 41 -9 37 -8
-4 -13 -9 -10 -13 2 -4 -2 -47 -10 -96 -8 -48 -12 -93 -9 -99 3 -6 -2 -2 -10
8 -9 12 -13 29 -10 43 8 31 -23 32 -35 1 -18 -49 -21 -166 -6 -210 8 -23 12
-44 9 -47 -8 -8 -29 19 -29 37 0 9 -5 17 -12 17 -19 0 -25 12 -28 59 -2 24 -6
49 -9 55 -4 6 -3 11 2 11 5 0 10 28 11 63 2 76 10 125 22 133 5 3 9 16 9 28 0
65 84 168 172 213 75 38 132 60 159 61 36 2 81 20 75 30 -3 4 10 13 27 20 l32
12 -25 -20 c-31 -24 -24 -25 25 -4 26 10 34 18 26 23 -10 6 -9 10 4 14 9 4 13
3 10 -3 -11 -17 5 -11 28 11 12 12 45 38 72 59 28 20 56 44 64 53 21 26 25 20
7 -8z m-1002 -137 c-5 -7 -2 -9 9 -5 35 13 87 19 87 9 0 -6 -19 -13 -42 -17
-51 -8 -185 -40 -212 -51 -14 -5 -17 -4 -12 5 6 8 -3 10 -36 4 -24 -4 -141 -8
-262 -7 -178 0 -220 3 -230 15 -15 19 -37 23 -46 9 -5 -9 -15 -8 -36 4 -28 16
-26 17 63 13 60 -2 97 -8 109 -18 10 -8 15 -9 11 -2 -6 9 2 11 30 6 55 -9 293
-9 328 -1 17 4 51 9 76 10 26 2 44 7 41 12 -3 5 2 7 11 3 10 -3 17 -2 17 3 0
6 8 10 18 10 13 0 14 -2 4 -9 -10 -6 -9 -10 7 -14 13 -3 30 2 44 14 26 22 31
23 21 7z m-724 -88 c3 0 -2 5 -10 10 -13 9 -13 10 0 10 8 0 22 -5 30 -10 11
-7 11 -10 2 -10 -7 0 -10 -5 -6 -11 4 -8 9 -7 14 2 6 8 39 13 97 16 80 2 86 1
69 -12 -11 -8 -16 -15 -10 -16 5 0 -2 -4 -14 -10 -13 -5 -29 -6 -34 -3 -6 4
-27 8 -46 10 -32 3 -34 2 -16 -10 10 -7 37 -16 59 -20 22 -4 45 -12 51 -17 7
-5 17 -8 24 -7 7 2 15 -3 18 -11 4 -11 -4 -13 -39 -7 -24 4 -50 13 -59 20 -22
19 -88 39 -107 32 -12 -5 -10 -10 12 -28 22 -17 29 -19 37 -7 8 11 9 11 5 -2
-3 -9 0 -16 6 -16 19 1 77 -26 77 -36 0 -4 11 -19 25 -32 13 -14 21 -25 17
-25 -4 0 8 -9 26 -20 18 -11 38 -20 45 -20 7 0 27 -13 45 -30 18 -16 37 -30
43 -30 5 0 9 -7 9 -16 0 -9 10 -24 23 -35 l22 -19 -30 12 c-39 16 -62 31 -63
41 -1 9 -47 47 -57 47 -3 0 -3 -5 1 -12 4 -7 3 -8 -5 -4 -6 4 -9 11 -7 15 3 4
-4 13 -16 20 -16 10 -19 10 -12 -1 4 -7 -8 2 -26 20 -19 17 -37 32 -41 32 -4
0 -9 10 -11 23 -2 17 -10 22 -31 22 -17 1 -33 8 -39 18 -5 10 -14 14 -20 11
-7 -4 -8 -2 -4 5 5 7 -3 15 -22 22 -33 11 -50 38 -32 49 8 5 6 10 -6 14 -10 4
-21 1 -25 -5 -4 -8 -16 -5 -37 11 -52 39 -48 50 11 34 29 -8 54 -14 57 -14z
m837 -95 c8 -8 18 -15 22 -15 18 0 43 -80 41 -131 -1 -30 -2 -63 -1 -74 l2
-20 9 20 c5 11 9 45 9 75 1 77 19 51 24 -35 3 -60 -1 -82 -30 -159 -27 -73
-32 -95 -24 -120 15 -50 22 -114 13 -120 -14 -8 -31 33 -45 110 -14 77 -8 115
35 197 5 11 7 21 5 23 -6 6 -57 -103 -57 -121 0 -7 -4 -17 -10 -20 -5 -3 -10
-21 -10 -40 0 -24 -7 -39 -22 -50 -18 -12 -20 -17 -10 -24 12 -7 11 -13 -2
-37 -43 -79 -67 -84 -90 -17 -20 58 -20 56 4 50 25 -7 25 -4 -3 26 -12 14 -28
45 -34 70 -7 25 -24 58 -39 74 -15 15 -21 20 -14 11 13 -18 22 -138 10 -138
-3 0 -5 -30 -5 -67 1 -36 -2 -58 -5 -47 -7 18 -7 18 -18 -2 -8 -14 -8 -24 -1
-31 7 -7 6 -12 -5 -16 -21 -8 -25 10 -15 78 10 71 -1 133 -41 220 -37 79 -47
174 -21 206 18 22 18 21 30 -57 12 -72 35 -144 46 -144 3 0 3 10 1 23 -3 12
-5 22 -6 22 -3 0 -12 40 -20 94 -7 46 -5 61 14 105 26 57 50 83 92 96 40 13
153 3 171 -15z m191 -1016 c25 -27 31 -29 43 -16 12 13 16 11 32 -15 10 -17
16 -33 13 -36 -4 -3 -6 0 -6 6 0 7 -6 12 -12 12 -7 -1 -2 -9 11 -20 12 -11 28
-17 34 -13 5 3 8 2 5 -3 -3 -5 29 -41 71 -80 42 -39 109 -102 149 -139 39 -38
72 -76 72 -85 0 -9 5 -21 12 -28 8 -8 8 -12 1 -12 -6 0 -13 -10 -17 -22 -5
-22 -6 -23 -21 -3 -14 17 -16 17 -11 2 3 -9 2 -17 -2 -17 -13 1 -97 90 -85 90
6 0 15 -5 18 -10 3 -6 12 -10 18 -10 7 0 -10 21 -38 46 -27 25 -49 49 -48 54
2 5 -4 7 -13 3 -9 -3 -13 -12 -9 -21 4 -12 3 -13 -9 -2 -14 11 -14 14 -1 27
14 13 12 19 -14 51 -39 49 -91 98 -91 86 0 -6 16 -25 35 -44 19 -18 33 -36 30
-38 -2 -2 -19 10 -37 27 -18 17 -38 29 -44 27 -16 -6 -78 60 -69 73 3 6 11 9
16 5 5 -3 7 -9 4 -14 -7 -11 30 -50 46 -50 5 0 -3 11 -18 25 -15 13 -22 25
-15 25 19 0 -45 77 -71 85 -12 4 -25 8 -29 9 -4 0 -13 7 -19 14 -10 10 -10 12
3 12 9 0 18 7 22 15 8 21 11 19 44 -16z"/>
</g>
</svg>
